<svg width="512" height="512" viewBox="0 0 512 512" fill="none" xmlns="http://www.w3.org/2000/svg">
<rect width="512" height="512" fill="#212529"/>
<g clip-path="url(#clip0)">
<path opacity="0.4" d="M203.5 46H72.25C65.2881 46 58.6113 48.7656 53.6884 53.6884C48.7656 58.6113 46 65.2881 46 72.25L46 203.5C46 210.462 48.7656 217.139 53.6884 222.062C58.6113 226.984 65.2881 229.75 72.25 229.75H203.5C210.462 229.75 217.139 226.984 222.062 222.062C226.984 217.139 229.75 210.462 229.75 203.5V72.25C229.75 65.2881 226.984 58.6113 222.062 53.6884C217.139 48.7656 210.462 46 203.5 46V46ZM190.375 144.438C190.375 146.178 189.684 147.847 188.453 149.078C187.222 150.309 185.553 151 183.812 151H91.9375C90.197 151 88.5278 150.309 87.2971 149.078C86.0664 147.847 85.375 146.178 85.375 144.438V131.312C85.375 129.572 86.0664 127.903 87.2971 126.672C88.5278 125.441 90.197 124.75 91.9375 124.75H183.812C185.553 124.75 187.222 125.441 188.453 126.672C189.684 127.903 190.375 129.572 190.375 131.312V144.438ZM203.5 282.25H72.25C65.2881 282.25 58.6113 285.016 53.6884 289.938C48.7656 294.861 46 301.538 46 308.5L46 439.75C46 446.712 48.7656 453.389 53.6884 458.312C58.6113 463.234 65.2881 466 72.25 466H203.5C210.462 466 217.139 463.234 222.062 458.312C226.984 453.389 229.75 446.712 229.75 439.75V308.5C229.75 301.538 226.984 294.861 222.062 289.938C217.139 285.016 210.462 282.25 203.5 282.25ZM179.637 397.332C180.867 398.562 181.558 400.231 181.558 401.971C181.558 403.71 180.867 405.379 179.637 406.609L170.359 415.887C169.129 417.117 167.46 417.808 165.721 417.808C163.981 417.808 162.312 417.117 161.082 415.887L137.875 392.689L114.668 415.895C113.438 417.125 111.769 417.816 110.029 417.816C108.29 417.816 106.621 417.125 105.391 415.895L96.1129 406.609C94.8831 405.379 94.1923 403.71 94.1923 401.971C94.1923 400.231 94.8831 398.562 96.1129 397.332L119.311 374.125L96.1047 350.918C94.8749 349.688 94.1841 348.019 94.1841 346.279C94.1841 344.54 94.8749 342.871 96.1047 341.641L105.382 332.363C106.613 331.133 108.282 330.442 110.021 330.442C111.761 330.442 113.43 331.133 114.66 332.363L137.875 355.561L161.082 332.355C162.312 331.125 163.981 330.434 165.721 330.434C167.46 330.434 169.129 331.125 170.359 332.355L179.637 341.632C180.867 342.863 181.558 344.532 181.558 346.271C181.558 348.011 180.867 349.68 179.637 350.91L156.439 374.125L179.637 397.332ZM439.75 46H308.5C301.538 46 294.861 48.7656 289.938 53.6884C285.016 58.6113 282.25 65.2881 282.25 72.25V203.5C282.25 210.462 285.016 217.139 289.938 222.062C294.861 226.984 301.538 229.75 308.5 229.75H439.75C446.712 229.75 453.389 226.984 458.312 222.062C463.234 217.139 466 210.462 466 203.5V72.25C466 65.2881 463.234 58.6113 458.312 53.6884C453.389 48.7656 446.712 46 439.75 46V46ZM426.625 144.438C426.625 146.178 425.934 147.847 424.703 149.078C423.472 150.309 421.803 151 420.062 151H387.25V183.812C387.25 185.553 386.559 187.222 385.328 188.453C384.097 189.684 382.428 190.375 380.688 190.375H367.562C365.822 190.375 364.153 189.684 362.922 188.453C361.691 187.222 361 185.553 361 183.812V151H328.188C326.447 151 324.778 150.309 323.547 149.078C322.316 147.847 321.625 146.178 321.625 144.438V131.312C321.625 129.572 322.316 127.903 323.547 126.672C324.778 125.441 326.447 124.75 328.188 124.75H361V91.9375C361 90.197 361.691 88.5278 362.922 87.2971C364.153 86.0664 365.822 85.375 367.562 85.375H380.688C382.428 85.375 384.097 86.0664 385.328 87.2971C386.559 88.5278 387.25 90.197 387.25 91.9375V124.75H420.062C421.803 124.75 423.472 125.441 424.703 126.672C425.934 127.903 426.625 129.572 426.625 131.312V144.438Z" fill="white"/>
<path d="M179.637 341.632L170.359 332.355C169.129 331.125 167.46 330.434 165.721 330.434C163.981 330.434 162.312 331.125 161.082 332.355L137.875 355.561L114.66 332.363C113.43 331.133 111.761 330.442 110.021 330.442C108.282 330.442 106.613 331.133 105.382 332.363L96.1047 341.641C94.8749 342.871 94.1841 344.54 94.1841 346.279C94.1841 348.019 94.8749 349.688 96.1047 350.918L119.311 374.125L96.1129 397.332C94.8831 398.562 94.1923 400.231 94.1923 401.971C94.1923 403.71 94.8831 405.379 96.1129 406.609L105.391 415.895C106.621 417.125 108.29 417.816 110.029 417.816C111.769 417.816 113.438 417.125 114.668 415.895L137.875 392.689L161.082 415.887C162.312 417.117 163.981 417.808 165.721 417.808C167.46 417.808 169.129 417.117 170.359 415.887L179.637 406.609C180.867 405.379 181.558 403.71 181.558 401.971C181.558 400.231 180.867 398.562 179.637 397.332L156.439 374.125L179.637 350.91C180.867 349.68 181.558 348.011 181.558 346.271C181.558 344.532 180.867 342.863 179.637 341.632V341.632ZM328.188 151H361V183.812C361 185.553 361.691 187.222 362.922 188.453C364.153 189.684 365.822 190.375 367.562 190.375H380.688C382.428 190.375 384.097 189.684 385.328 188.453C386.559 187.222 387.25 185.553 387.25 183.812V151H420.062C421.803 151 423.472 150.309 424.703 149.078C425.934 147.847 426.625 146.178 426.625 144.438V131.312C426.625 129.572 425.934 127.903 424.703 126.672C423.472 125.441 421.803 124.75 420.062 124.75H387.25V91.9375C387.25 90.197 386.559 88.5278 385.328 87.2971C384.097 86.0664 382.428 85.375 380.688 85.375H367.562C365.822 85.375 364.153 86.0664 362.922 87.2971C361.691 88.5278 361 90.197 361 91.9375V124.75H328.188C326.447 124.75 324.778 125.441 323.547 126.672C322.316 127.903 321.625 129.572 321.625 131.312V144.438C321.625 146.178 322.316 147.847 323.547 149.078C324.778 150.309 326.447 151 328.188 151ZM183.812 124.75H91.9375C90.197 124.75 88.5278 125.441 87.2971 126.672C86.0664 127.903 85.375 129.572 85.375 131.312V144.438C85.375 146.178 86.0664 147.847 87.2971 149.078C88.5278 150.309 90.197 151 91.9375 151H183.812C185.553 151 187.222 150.309 188.453 149.078C189.684 147.847 190.375 146.178 190.375 144.438V131.312C190.375 129.572 189.684 127.903 188.453 126.672C187.222 125.441 185.553 124.75 183.812 124.75ZM439.75 282.25H308.5C301.538 282.25 294.861 285.016 289.938 289.938C285.016 294.861 282.25 301.538 282.25 308.5V439.75C282.25 446.712 285.016 453.389 289.938 458.312C294.861 463.234 301.538 466 308.5 466H439.75C446.712 466 453.389 463.234 458.312 458.312C463.234 453.389 466 446.712 466 439.75V308.5C466 301.538 463.234 294.861 458.312 289.938C453.389 285.016 446.712 282.25 439.75 282.25ZM426.625 406.938C426.625 408.678 425.934 410.347 424.703 411.578C423.472 412.809 421.803 413.5 420.062 413.5H328.188C326.447 413.5 324.778 412.809 323.547 411.578C322.316 410.347 321.625 408.678 321.625 406.938V393.812C321.625 392.072 322.316 390.403 323.547 389.172C324.778 387.941 326.447 387.25 328.188 387.25H420.062C421.803 387.25 423.472 387.941 424.703 389.172C425.934 390.403 426.625 392.072 426.625 393.812V406.938ZM426.625 354.438C426.625 356.178 425.934 357.847 424.703 359.078C423.472 360.309 421.803 361 420.062 361H328.188C326.447 361 324.778 360.309 323.547 359.078C322.316 357.847 321.625 356.178 321.625 354.438V341.312C321.625 339.572 322.316 337.903 323.547 336.672C324.778 335.441 326.447 334.75 328.188 334.75H420.062C421.803 334.75 423.472 335.441 424.703 336.672C425.934 337.903 426.625 339.572 426.625 341.312V354.438Z" fill="white"/>
</g>
<defs>
<clipPath id="clip0">
<rect width="420" height="420" fill="white" transform="translate(46 46)"/>
</clipPath>
</defs>
</svg>
