<?xml version="1.0" standalone="no"?>
<!DOCTYPE svg PUBLIC "-//W3C//DTD SVG 20010904//EN"
 "http://www.w3.org/TR/2001/REC-SVG-20010904/DTD/svg10.dtd">
<svg version="1.0" xmlns="http://www.w3.org/2000/svg"
 width="512.000000pt" height="512.000000pt" viewBox="0 0 512.000000 512.000000"
 preserveAspectRatio="xMidYMid meet">
<metadata>
Created by potrace 1.11, written by Peter Selinger 2001-2013
</metadata>
<g transform="translate(0.000000,512.000000) scale(0.100000,-0.100000)"
fill="#000000" stroke="none">
<path d="M0 2560 l0 -2560 2560 0 2560 0 0 2560 0 2560 -2560 0 -2560 0 0
-2560z m3851 1691 c23 -19 24 -24 27 -194 l3 -176 176 -3 c216 -4 213 -2 213
-139 0 -131 4 -129 -215 -129 l-175 0 0 -165 c0 -228 -4 -235 -146 -235 -57 0
-77 4 -98 21 l-26 20 0 180 0 179 -179 0 -180 0 -20 26 c-17 22 -21 41 -21
100 0 83 12 117 47 133 14 7 89 11 188 11 l165 0 0 175 c0 219 -2 215 129 215
72 0 93 -4 112 -19z m-1982 -386 c34 -17 41 -38 41 -131 0 -57 -4 -77 -21 -98
l-20 -26 -490 0 c-579 0 -529 -12 -529 126 0 92 9 120 43 134 12 5 230 9 485
9 387 1 468 -1 491 -14z m2647 -1597 c29 -15 66 -44 83 -65 63 -77 62 -57 59
-844 l-3 -714 -27 -47 c-16 -25 -45 -60 -65 -77 -76 -62 -58 -61 -823 -61
-786 0 -754 -3 -836 76 -84 82 -79 33 -82 799 -2 374 0 703 3 731 9 77 58 151
124 191 29 17 65 34 80 36 14 2 343 4 731 3 l705 -1 51 -27z m-3264 -575 l128
-127 128 127 c92 92 134 127 151 127 33 0 161 -127 161 -160 0 -16 -37 -61
-127 -152 l-127 -128 127 -128 c87 -89 127 -136 127 -151 0 -15 -24 -48 -67
-92 -95 -99 -96 -99 -252 56 l-127 125 -124 -125 c-93 -93 -131 -125 -150
-125 -35 0 -160 125 -160 160 0 19 30 56 125 150 l125 124 -125 127 c-154 155
-154 154 -57 251 46 45 76 68 92 68 16 0 61 -37 152 -127z"/>
<path d="M3237 1752 c-13 -15 -17 -39 -17 -115 0 -88 2 -97 22 -111 20 -14 84
-16 501 -16 l478 0 24 25 c22 21 25 33 25 100 0 73 -10 112 -34 127 -6 4 -230
8 -497 8 -458 0 -487 -1 -502 -18z"/>
<path d="M3242 1234 c-20 -14 -22 -23 -22 -113 0 -82 3 -101 18 -114 17 -15
66 -17 503 -17 403 0 488 2 505 14 16 13 19 27 19 111 0 148 49 135 -524 135
-415 0 -479 -2 -499 -16z"/>
</g>
</svg>
